<svg width="16" height="16" viewBox="0 0 16 16" fill="none" xmlns="http://www.w3.org/2000/svg">
<g id="Social media logo">
<path id="Subtract" fill-rule="evenodd" clip-rule="evenodd" d="M0.375289 1.79675C0 2.51921 0 3.46836 0 5.36667V10.6333C0 12.5316 0 13.4808 0.375289 14.2032C0.69154 14.8121 1.18794 15.3085 1.79675 15.6247C2.51921 16 3.46836 16 5.36667 16H10.6333C12.5316 16 13.4808 16 14.2032 15.6247C14.8121 15.3085 15.3085 14.8121 15.6247 14.2032C16 13.4808 16 12.5316 16 10.6333V5.36667C16 3.46836 16 2.51921 15.6247 1.79675C15.3085 1.18794 14.8121 0.69154 14.2032 0.375289C13.4808 0 12.5316 0 10.6333 0H5.36667C3.46836 0 2.51921 0 1.79675 0.375289C1.18794 0.69154 0.69154 1.18794 0.375289 1.79675ZM11.467 7.99997L11.1114 10.2222H9.33366V16H6.66699V10.2222H4.66699V7.99997H6.66699V6.2222C6.66699 4.2222 7.95588 3.11108 9.7781 3.11108C10.3559 3.11108 10.9781 3.19997 11.5559 3.28886V5.33331H10.5337C9.55588 5.33331 9.33366 5.8222 9.33366 6.44442V7.99997H11.467Z" fill="#FE8400"/>
</g>
</svg>
