<svg width="16" height="16" viewBox="0 0 16 16" fill="none" xmlns="http://www.w3.org/2000/svg">
<g id="Social media logo" clip-path="url(#clip0_1_2338)">
<g id="Subtract">
<path fill-rule="evenodd" clip-rule="evenodd" d="M0.384078 1.79675C0.00878906 2.51921 0.00878906 3.46836 0.00878906 5.36667V10.6333C0.00878906 12.5316 0.00878906 13.4808 0.384078 14.2032C0.700329 14.8121 1.19673 15.3085 1.80554 15.6247C2.528 16 3.47715 16 5.37546 16H10.6421C12.5404 16 13.4896 16 14.212 15.6247C14.8208 15.3085 15.3172 14.8121 15.6335 14.2032C16.0088 13.4808 16.0088 12.5316 16.0088 10.6333V5.36667C16.0088 3.46836 16.0088 2.51921 15.6335 1.79675C15.3172 1.18794 14.8208 0.69154 14.212 0.375289C13.4896 0 12.5404 0 10.6421 0H5.37546C3.47715 0 2.528 0 1.80554 0.375289C1.19673 0.69154 0.700329 1.18794 0.384078 1.79675ZM5.60117 2.21704C6.22176 2.18879 6.42006 2.18188 8.00013 2.18188H7.99831C9.57887 2.18188 9.77644 2.18879 10.397 2.21704C11.0164 2.2454 11.4394 2.34346 11.8103 2.48734C12.1933 2.63582 12.517 2.83461 12.8406 3.15825C13.1642 3.48164 13.363 3.80625 13.5121 4.18891C13.6551 4.55885 13.7533 4.98164 13.7824 5.60104C13.8103 6.22164 13.8175 6.41995 13.8175 8.00007C13.8175 9.58019 13.8103 9.77801 13.7824 10.3986C13.7533 11.0178 13.6551 11.4407 13.5121 11.8107C13.363 12.1933 13.1642 12.5179 12.8406 12.8413C12.5173 13.1649 12.1932 13.3642 11.8107 13.5128C11.4405 13.6567 11.0173 13.7547 10.3979 13.7831C9.77729 13.8113 9.5796 13.8182 7.9994 13.8182C6.41945 13.8182 6.22128 13.8113 5.60069 13.7831C4.98143 13.7547 4.55854 13.6567 4.18837 13.5128C3.80596 13.3642 3.48136 13.1649 3.1581 12.8413C2.83459 12.5179 2.63581 12.1933 2.48709 11.8106C2.34333 11.4407 2.24528 11.0179 2.21679 10.3985C2.18867 9.77788 2.18164 9.58019 2.18164 8.00007C2.18164 6.41995 2.18891 6.22152 2.21667 5.60091C2.24455 4.98176 2.34273 4.55885 2.48696 4.18879C2.63605 3.80625 2.83483 3.48164 3.15846 3.15825C3.48184 2.83473 3.80644 2.63595 4.1891 2.48734C4.55902 2.34346 4.9818 2.2454 5.60117 2.21704ZM7.80622 3.23031C7.68857 3.23026 7.57955 3.23021 7.47821 3.23037V3.22891C6.39388 3.23013 6.18588 3.2374 5.64917 3.26164C5.08192 3.2877 4.77393 3.38225 4.56884 3.46225C4.29733 3.56795 4.1034 3.69401 3.89977 3.89764C3.69614 4.10128 3.56984 4.29522 3.46439 4.56673C3.38476 4.77182 3.28997 5.0797 3.26403 5.64698C3.23615 6.26031 3.23058 6.44358 3.23058 7.99728C3.23058 9.55097 3.23615 9.73522 3.26403 10.3486C3.28985 10.9158 3.38476 11.2237 3.46439 11.4286C3.57008 11.7002 3.69614 11.8936 3.89977 12.0973C4.1034 12.3009 4.29733 12.427 4.56884 12.5324C4.77405 12.6121 5.08192 12.7069 5.64917 12.733C6.26249 12.7609 6.4466 12.767 8.00013 12.767C9.55354 12.767 9.73778 12.7609 10.3511 12.733C10.9183 12.7071 11.2265 12.6126 11.4313 12.5326C11.7029 12.4271 11.8963 12.301 12.0999 12.0974C12.3035 11.8939 12.4298 11.7006 12.5353 11.429C12.6149 11.2242 12.7097 10.9163 12.7356 10.349C12.7635 9.7357 12.7696 9.55146 12.7696 7.99873C12.7696 6.44601 12.7635 6.26176 12.7356 5.64843C12.7098 5.08116 12.6149 4.77328 12.5353 4.56843C12.4296 4.29692 12.3035 4.10298 12.0999 3.89934C11.8964 3.6957 11.7028 3.56964 11.4313 3.46419C11.2262 3.38455 10.9183 3.28976 10.3511 3.26382C9.73765 3.23595 9.55354 3.23037 8.00013 3.23037C7.93299 3.23037 7.8684 3.23034 7.80622 3.23031ZM10.4076 4.89437C10.4076 4.50879 10.7203 4.19643 11.1057 4.19643V4.19619C11.4912 4.19619 11.8039 4.50891 11.8039 4.89437C11.8039 5.27982 11.4912 5.59255 11.1057 5.59255C10.7203 5.59255 10.4076 5.27982 10.4076 4.89437ZM5.01234 8.00007C5.01234 6.35005 6.35005 5.01225 8.00001 5.01219C9.65002 5.01219 10.9874 6.35001 10.9874 8.00007C10.9874 9.65013 9.65014 10.9873 8.00013 10.9873C6.35012 10.9873 5.01234 9.65013 5.01234 8.00007ZM9.93947 8.00007C9.93947 6.92892 9.07113 6.06067 8.00013 6.06067C6.92901 6.06067 6.0608 6.92892 6.0608 8.00007C6.0608 9.0711 6.92901 9.93946 8.00013 9.93946C9.07113 9.93946 9.93947 9.0711 9.93947 8.00007Z" fill="url(#paint0_radial_1_2338)"/>
<path fill-rule="evenodd" clip-rule="evenodd" d="M0.384078 1.79675C0.00878906 2.51921 0.00878906 3.46836 0.00878906 5.36667V10.6333C0.00878906 12.5316 0.00878906 13.4808 0.384078 14.2032C0.700329 14.8121 1.19673 15.3085 1.80554 15.6247C2.528 16 3.47715 16 5.37546 16H10.6421C12.5404 16 13.4896 16 14.212 15.6247C14.8208 15.3085 15.3172 14.8121 15.6335 14.2032C16.0088 13.4808 16.0088 12.5316 16.0088 10.6333V5.36667C16.0088 3.46836 16.0088 2.51921 15.6335 1.79675C15.3172 1.18794 14.8208 0.69154 14.212 0.375289C13.4896 0 12.5404 0 10.6421 0H5.37546C3.47715 0 2.528 0 1.80554 0.375289C1.19673 0.69154 0.700329 1.18794 0.384078 1.79675ZM5.60117 2.21704C6.22176 2.18879 6.42006 2.18188 8.00013 2.18188H7.99831C9.57887 2.18188 9.77644 2.18879 10.397 2.21704C11.0164 2.2454 11.4394 2.34346 11.8103 2.48734C12.1933 2.63582 12.517 2.83461 12.8406 3.15825C13.1642 3.48164 13.363 3.80625 13.5121 4.18891C13.6551 4.55885 13.7533 4.98164 13.7824 5.60104C13.8103 6.22164 13.8175 6.41995 13.8175 8.00007C13.8175 9.58019 13.8103 9.77801 13.7824 10.3986C13.7533 11.0178 13.6551 11.4407 13.5121 11.8107C13.363 12.1933 13.1642 12.5179 12.8406 12.8413C12.5173 13.1649 12.1932 13.3642 11.8107 13.5128C11.4405 13.6567 11.0173 13.7547 10.3979 13.7831C9.77729 13.8113 9.5796 13.8182 7.9994 13.8182C6.41945 13.8182 6.22128 13.8113 5.60069 13.7831C4.98143 13.7547 4.55854 13.6567 4.18837 13.5128C3.80596 13.3642 3.48136 13.1649 3.1581 12.8413C2.83459 12.5179 2.63581 12.1933 2.48709 11.8106C2.34333 11.4407 2.24528 11.0179 2.21679 10.3985C2.18867 9.77788 2.18164 9.58019 2.18164 8.00007C2.18164 6.41995 2.18891 6.22152 2.21667 5.60091C2.24455 4.98176 2.34273 4.55885 2.48696 4.18879C2.63605 3.80625 2.83483 3.48164 3.15846 3.15825C3.48184 2.83473 3.80644 2.63595 4.1891 2.48734C4.55902 2.34346 4.9818 2.2454 5.60117 2.21704ZM7.80622 3.23031C7.68857 3.23026 7.57955 3.23021 7.47821 3.23037V3.22891C6.39388 3.23013 6.18588 3.2374 5.64917 3.26164C5.08192 3.2877 4.77393 3.38225 4.56884 3.46225C4.29733 3.56795 4.1034 3.69401 3.89977 3.89764C3.69614 4.10128 3.56984 4.29522 3.46439 4.56673C3.38476 4.77182 3.28997 5.0797 3.26403 5.64698C3.23615 6.26031 3.23058 6.44358 3.23058 7.99728C3.23058 9.55097 3.23615 9.73522 3.26403 10.3486C3.28985 10.9158 3.38476 11.2237 3.46439 11.4286C3.57008 11.7002 3.69614 11.8936 3.89977 12.0973C4.1034 12.3009 4.29733 12.427 4.56884 12.5324C4.77405 12.6121 5.08192 12.7069 5.64917 12.733C6.26249 12.7609 6.4466 12.767 8.00013 12.767C9.55354 12.767 9.73778 12.7609 10.3511 12.733C10.9183 12.7071 11.2265 12.6126 11.4313 12.5326C11.7029 12.4271 11.8963 12.301 12.0999 12.0974C12.3035 11.8939 12.4298 11.7006 12.5353 11.429C12.6149 11.2242 12.7097 10.9163 12.7356 10.349C12.7635 9.7357 12.7696 9.55146 12.7696 7.99873C12.7696 6.44601 12.7635 6.26176 12.7356 5.64843C12.7098 5.08116 12.6149 4.77328 12.5353 4.56843C12.4296 4.29692 12.3035 4.10298 12.0999 3.89934C11.8964 3.6957 11.7028 3.56964 11.4313 3.46419C11.2262 3.38455 10.9183 3.28976 10.3511 3.26382C9.73765 3.23595 9.55354 3.23037 8.00013 3.23037C7.93299 3.23037 7.8684 3.23034 7.80622 3.23031ZM10.4076 4.89437C10.4076 4.50879 10.7203 4.19643 11.1057 4.19643V4.19619C11.4912 4.19619 11.8039 4.50891 11.8039 4.89437C11.8039 5.27982 11.4912 5.59255 11.1057 5.59255C10.7203 5.59255 10.4076 5.27982 10.4076 4.89437ZM5.01234 8.00007C5.01234 6.35005 6.35005 5.01225 8.00001 5.01219C9.65002 5.01219 10.9874 6.35001 10.9874 8.00007C10.9874 9.65013 9.65014 10.9873 8.00013 10.9873C6.35012 10.9873 5.01234 9.65013 5.01234 8.00007ZM9.93947 8.00007C9.93947 6.92892 9.07113 6.06067 8.00013 6.06067C6.92901 6.06067 6.0608 6.92892 6.0608 8.00007C6.0608 9.0711 6.92901 9.93946 8.00013 9.93946C9.07113 9.93946 9.93947 9.0711 9.93947 8.00007Z" fill="#FE8400"/>
</g>
</g>
<defs>
<radialGradient id="paint0_radial_1_2338" cx="0" cy="0" r="1" gradientUnits="userSpaceOnUse" gradientTransform="translate(4.25881 17.2323) rotate(-90) scale(15.8572 14.7484)">
<stop stop-color="#FFDD55"/>
<stop offset="0.1" stop-color="#FFDD55"/>
<stop offset="0.5" stop-color="#FF543E"/>
<stop offset="1" stop-color="#C837AB"/>
</radialGradient>
<clipPath id="clip0_1_2338">
<rect width="16" height="16" fill="white"/>
</clipPath>
</defs>
</svg>
