<svg width="16" height="16" viewBox="0 0 16 16" fill="none" xmlns="http://www.w3.org/2000/svg">
<g id="Social media logo" clip-path="url(#clip0_1_2350)">
<path id="Subtract" fill-rule="evenodd" clip-rule="evenodd" d="M0.375289 1.79675C0 2.51921 0 3.46836 0 5.36667V10.6333C0 12.5316 0 13.4808 0.375289 14.2032C0.69154 14.8121 1.18794 15.3085 1.79675 15.6247C2.51921 16 3.46836 16 5.36667 16H10.6333C12.5316 16 13.4808 16 14.2032 15.6247C14.8121 15.3085 15.3085 14.8121 15.6247 14.2032C16 13.4808 16 12.5316 16 10.6333V5.36667C16 3.46836 16 2.51921 15.6247 1.79675C15.3085 1.18794 14.8121 0.69154 14.2032 0.375289C13.4808 0 12.5316 0 10.6333 0H5.36667C3.46836 0 2.51921 0 1.79675 0.375289C1.18794 0.69154 0.69154 1.18794 0.375289 1.79675ZM2.58384 7.45732L12.2166 3.74195C12.6565 3.54227 13.0812 3.84769 12.9132 4.52102L11.2728 12.2512C11.1583 12.8005 10.8263 12.9319 10.3665 12.6783L7.86748 10.8319L7.81813 10.8799C7.25132 11.431 6.75238 11.9161 6.66633 12.0003L6.65711 12.0093C6.52212 12.1413 6.41067 12.2502 6.16624 12.2502C5.9125 12.2502 5.89133 12.1752 5.84035 11.9944C5.82625 11.9444 5.80988 11.8863 5.78566 11.8194L4.86644 9.00116L2.464 8.25131C1.93029 8.0878 1.92639 7.7211 2.58384 7.45732ZM10.6586 5.41246L5.24347 8.82888L6.15597 11.6264L6.33651 9.70082L10.9733 5.5173C11.1768 5.33666 10.9289 5.24851 10.6586 5.41246Z" fill="#FE8400"/>
</g>
<defs>
<clipPath id="clip0_1_2350">
<rect width="16" height="16" fill="white"/>
</clipPath>
</defs>
</svg>
