<svg width="16" height="16" viewBox="0 0 16 16" fill="none" xmlns="http://www.w3.org/2000/svg">
<g id="Social media logo">
<path id="Subtract" fill-rule="evenodd" clip-rule="evenodd" d="M0.375289 1.79675C0 2.51921 0 3.46836 0 5.36667V10.6333C0 12.5316 0 13.4808 0.375289 14.2032C0.69154 14.8121 1.18794 15.3085 1.79675 15.6247C2.51921 16 3.46836 16 5.36667 16H10.6333C12.5316 16 13.4808 16 14.2032 15.6247C14.8121 15.3085 15.3085 14.8121 15.6247 14.2032C16 13.4808 16 12.5316 16 10.6333V5.36667C16 3.46836 16 2.51921 15.6247 1.79675C15.3085 1.18794 14.8121 0.69154 14.2032 0.375289C13.4808 0 12.5316 0 10.6333 0H5.36667C3.46836 0 2.51921 0 1.79675 0.375289C1.18794 0.69154 0.69154 1.18794 0.375289 1.79675ZM12.4461 6.3505C12.4461 6.25057 12.4448 6.15067 12.441 6.05074C12.8548 5.72822 13.2131 5.324 13.4978 4.86521C13.1184 5.04691 12.7093 5.16947 12.2803 5.22398C12.7187 4.94234 13.0542 4.49273 13.2131 3.95672C12.8032 4.22018 12.3501 4.41095 11.8665 4.51089C11.4802 4.06573 10.9298 3.78859 10.3204 3.78859C9.14986 3.78859 8.20112 4.81522 8.20112 6.08257C8.20112 6.25972 8.21964 6.43683 8.25582 6.60491C6.49485 6.50951 4.93283 5.59646 3.88804 4.20647C3.70458 4.54715 3.60036 4.94236 3.60036 5.36027C3.60036 6.1552 3.97461 6.85927 4.54394 7.27263C4.1964 7.25901 3.86911 7.15458 3.58315 6.98651V7.01379C3.58315 8.1267 4.31397 9.05334 5.28425 9.2623C5.10509 9.3168 4.91819 9.34403 4.72568 9.34403C4.58916 9.34403 4.45567 9.33036 4.32604 9.30311C4.59606 10.2116 5.379 10.8793 6.30621 10.893C5.58098 11.5107 4.66669 11.8788 3.67402 11.8788C3.50304 11.8788 3.33465 11.8651 3.16885 11.8469C4.10683 12.4965 5.22008 12.8781 6.41732 12.8781C10.3148 12.8781 12.4461 9.38033 12.4461 6.3505Z" fill="#FE8400"/>
</g>
</svg>
