<svg width="16" height="16" viewBox="0 0 16 16" fill="none" xmlns="http://www.w3.org/2000/svg">
<path fill-rule="evenodd" clip-rule="evenodd" d="M0.375289 1.79675C0 2.51921 0 3.46836 0 5.36667V10.6333C0 12.5316 0 13.4808 0.375289 14.2032C0.69154 14.8121 1.18794 15.3085 1.79675 15.6247C2.51921 16 3.46836 16 5.36667 16H10.6333C12.5316 16 13.4808 16 14.2032 15.6247C14.8121 15.3085 15.3085 14.8121 15.6247 14.2032C16 13.4808 16 12.5316 16 10.6333V5.36667C16 3.46836 16 2.51921 15.6247 1.79675C15.3085 1.18794 14.8121 0.69154 14.2032 0.375289C13.4808 0 12.5316 0 10.6333 0H5.36667C3.46836 0 2.51921 0 1.79675 0.375289C1.18794 0.69154 0.69154 1.18794 0.375289 1.79675ZM12.2082 3.85971C11.2003 2.85109 9.88063 2.26707 8.46439 2.19747L8.17992 2.19043C5.04112 2.19043 2.48651 4.74363 2.48525 7.88184C2.48484 8.88504 2.74706 9.86417 3.2454 10.7273L2.4375 13.6768L5.45632 12.8853C6.28808 13.3388 7.22455 13.5778 8.17765 13.5781H8.18C11.3185 13.5781 13.8733 11.0246 13.8746 7.88636C13.8752 6.36557 13.2834 4.93552 12.2082 3.85971ZM5.76903 11.9574L5.59617 11.8549L3.80478 12.3246L4.28293 10.5788L4.17039 10.3998C3.6966 9.64665 3.44637 8.77608 3.44673 7.88217C3.44777 5.27382 5.57107 3.15176 8.18187 3.15176C9.44609 3.15217 10.6345 3.64493 11.5281 4.53918C12.4217 5.43337 12.9136 6.62197 12.9131 7.88603C12.912 10.4946 10.7888 12.6168 8.17998 12.6168H8.17806C7.32873 12.6165 6.49573 12.3885 5.76903 11.9574ZM10.854 9.11177C10.9532 9.1597 11.0203 9.19207 11.0489 9.23984C11.0845 9.29915 11.0845 9.58389 10.9659 9.91616C10.8473 10.2483 10.2789 10.5515 10.0055 10.5924C9.76031 10.629 9.45014 10.6443 9.10927 10.536C8.90263 10.4705 8.63758 10.383 8.2981 10.2364C6.96421 9.6607 6.06276 8.36854 5.89235 8.12428C5.88041 8.10717 5.87206 8.0952 5.8674 8.08898L5.86616 8.08731C5.79052 7.98641 5.28638 7.31388 5.28638 6.61778C5.28638 5.96261 5.60841 5.61921 5.75659 5.4612C5.76673 5.45039 5.77605 5.44045 5.7844 5.43134C5.91482 5.28893 6.06897 5.25336 6.16384 5.25336C6.25869 5.25336 6.35364 5.25427 6.43653 5.25837C6.44676 5.25889 6.45739 5.25883 6.46839 5.25876C6.55131 5.25828 6.6547 5.25768 6.7567 5.50251C6.79591 5.59667 6.85326 5.73625 6.91377 5.88348C7.03623 6.18149 7.17158 6.51086 7.1954 6.55852C7.23096 6.62972 7.25468 6.71274 7.20726 6.80767C7.20013 6.82194 7.19353 6.83541 7.18722 6.84827C7.15161 6.92094 7.12542 6.97439 7.06497 7.04493C7.04126 7.0726 7.01676 7.10243 6.99226 7.13225C6.94323 7.19192 6.8942 7.2516 6.85151 7.2941C6.78028 7.36499 6.70615 7.44198 6.78913 7.58434C6.87214 7.72672 7.15771 8.19242 7.58071 8.56955C8.03547 8.97496 8.43072 9.14632 8.63101 9.23315C8.67008 9.2501 8.70174 9.26382 8.72497 9.27544C8.86723 9.34663 8.95024 9.33475 9.03322 9.23984C9.11625 9.14491 9.38894 8.82455 9.48378 8.68219C9.57862 8.53987 9.67349 8.56358 9.80392 8.61098C9.93435 8.65848 10.6339 9.00253 10.7762 9.07372C10.804 9.08761 10.8299 9.10015 10.854 9.11177Z" fill="#FE8400"/>
</svg>
